<svg width="86" height="36" viewBox="0 0 86 36" fill="none" xmlns="http://www.w3.org/2000/svg">
<path d="M27.6418 23.1297C27.6128 23.0066 27.5875 22.8796 27.5475 22.7671V22.7674C27.3926 22.2622 27.1291 21.797 26.7754 21.4043C26.2459 20.8185 25.5372 20.4246 24.7603 20.2845C24.8182 19.6501 24.8725 18.9179 24.9198 18.1096L25.0068 16.3807L25.0429 15.4454C25.0543 15.2523 25.0543 15.0586 25.0429 14.8654L24.9994 14.5464L24.9269 14.2311V14.2313C24.7367 13.5608 24.3572 12.9593 23.8338 12.4991C23.3105 12.0387 22.6657 11.7391 21.9765 11.636C21.573 11.5945 21.1677 11.5763 20.7621 11.5816C19.3124 11.5599 17.7828 11.549 16.2713 11.549C14.7598 11.549 13.2446 11.549 11.7804 11.5781H11.7801C11.3749 11.5733 10.9693 11.5915 10.566 11.6324C9.87527 11.7333 9.22826 12.0314 8.70289 12.4913C8.17774 12.951 7.7962 13.5527 7.60455 14.224C7.54817 14.4329 7.50923 14.6465 7.48875 14.8619C7.47687 15.0551 7.47687 15.2488 7.48875 15.4419L7.52491 16.3772L7.61188 18.1061C7.65537 18.86 7.70619 19.5558 7.75676 20.1432C7.2382 20.2327 6.74438 20.4304 6.30703 20.7229C5.36397 21.3502 4.74979 22.3656 4.63251 23.4922V23.891V27.8418C4.63251 27.9578 4.63251 28.1027 4.65425 28.2331C4.676 28.3636 4.6942 28.4979 4.71594 28.6283C4.94324 29.6678 5.60236 30.5615 6.52827 31.0859C6.97376 31.34 7.46757 31.498 7.978 31.5499C8.10492 31.5499 8.22805 31.5499 8.34057 31.5681H9.21741L11.3632 31.5354C10.3883 32.5103 9.42039 34.0726 9.36608 34.9536L9.36634 34.9533C9.49023 35.0828 9.62878 35.197 9.77947 35.2941C9.89931 35.392 10.0308 35.4747 10.1709 35.5406C11.2583 35.1128 12.9872 32.804 13.2264 31.5064C15.4374 31.4665 17.4854 31.4159 19.3012 31.3577C19.4173 32.6156 21.2296 35.0911 22.3679 35.5371C22.5284 35.4582 22.6794 35.3609 22.8172 35.2471C22.9499 35.1631 23.0718 35.0635 23.1797 34.9497C23.1218 33.9857 21.9836 32.2386 20.9325 31.296C21.9835 31.2561 22.9332 31.2164 23.7741 31.1691V31.1694C24.0166 31.115 24.1751 30.8819 24.1367 30.6364C24.1465 30.4136 23.9928 30.2169 23.7741 30.1724C20.4142 29.9911 15.227 29.8607 9.22114 29.7772H8.18805V29.7775C7.93142 29.7441 7.68465 29.6577 7.46318 29.5237C7.00934 29.2506 6.69126 28.7995 6.58608 28.2805L6.5608 28.0848V23.6879C6.62148 23.1504 6.91932 22.6683 7.37265 22.3732C7.82599 22.0782 8.38756 22.0011 8.90355 22.1629C9.41955 22.3247 9.83651 22.7085 10.0403 23.2096C10.0901 23.333 10.124 23.4619 10.1417 23.5937C10.1639 23.7509 10.1722 23.91 10.1672 24.0685V25.3155C10.1659 25.5843 10.2744 25.8422 10.4671 26.0292C10.66 26.2166 10.9206 26.3175 11.1894 26.3086C14.7089 26.3086 18.1267 26.2795 21.3384 26.2434H21.3602H21.3599C21.6069 26.2434 21.8436 26.1438 22.0163 25.967C22.189 25.7906 22.283 25.5516 22.277 25.3046V23.8549C22.2701 23.3341 22.4734 22.8327 22.841 22.4636C23.2084 22.0947 23.709 21.8894 24.2296 21.8939C24.7504 21.8985 25.2473 22.1129 25.6081 22.4883C25.8126 22.6941 25.9706 22.9414 26.072 23.2132L26.1337 23.4198L26.1737 23.6299V24.1444L26.2316 26.3807L26.2642 27.4283V27.914V27.9145C26.2644 28.0358 26.2561 28.1569 26.2389 28.277C26.1577 28.7541 25.9251 29.1926 25.5754 29.5273C25.2581 29.8307 24.8607 30.037 24.4301 30.1219C24.2195 30.2152 24.0966 30.4375 24.1292 30.6655C24.1282 30.7783 24.1732 30.8865 24.2542 30.9654C24.3348 31.044 24.4443 31.0863 24.557 31.0825C25.1967 31.0266 25.8058 30.7831 26.3077 30.3828C26.894 29.925 27.3129 29.2868 27.5003 28.5667C27.5443 28.37 27.5721 28.17 27.5835 27.9687C27.5835 27.7657 27.5835 27.6062 27.6053 27.4431L27.6379 26.3956L27.6958 24.1592V23.5031C27.6778 23.3908 27.6596 23.2639 27.6417 23.1297L27.6418 23.1297ZM22.1288 20.792C21.6195 21.1212 21.1981 21.5689 20.9 22.0969C20.6017 22.643 20.4421 23.2541 20.436 23.8766V24.3767C17.7863 24.3514 15.0208 24.3332 12.1829 24.3258V24.0685C12.1889 23.8116 12.1743 23.5547 12.1394 23.3001C12.0997 23.0195 12.0266 22.7444 11.9217 22.4809C11.5047 21.4056 10.6221 20.5776 9.52228 20.2302C9.31521 20.1668 9.10308 20.122 8.88792 20.096C8.94101 19.5015 8.9893 18.831 9.03279 18.0844L9.11977 16.3555L9.15593 15.4203H9.15618C9.15896 15.2929 9.16983 15.1657 9.1888 15.0395C9.20852 14.929 9.23633 14.8198 9.27223 14.7134C9.43228 14.282 9.74428 13.9238 10.1493 13.7058C10.3599 13.5956 10.5903 13.5278 10.8272 13.5064C11.0085 13.4846 11.4325 13.5064 11.7877 13.5064C13.2375 13.5281 14.7671 13.5354 16.2786 13.5354C17.7901 13.5354 19.3053 13.5354 20.7695 13.5028C21.1321 13.5028 21.5487 13.4811 21.73 13.5028H21.7303C21.9639 13.5278 22.1904 13.5979 22.3973 13.7094C22.8061 13.9306 23.1196 14.2944 23.2779 14.7316L23.3287 14.8947L23.3613 15.0613C23.38 15.1887 23.3909 15.3169 23.3939 15.4456L23.4301 16.3808L23.5135 18.1062C23.5605 18.9036 23.6114 19.6211 23.6693 20.2446C23.1216 20.3104 22.5955 20.4975 22.129 20.792L22.1288 20.792Z" fill="#1B1A1A"/>
<path d="M25.6625 8.08411C25.7096 6.13042 25.7495 3.99195 25.7748 1.55974H25.775C25.7778 1.31348 25.6828 1.07632 25.5108 0.900314C25.3389 0.724312 25.104 0.623715 24.858 0.620931H24.8398L21.1825 0.584523C20.9262 0.582753 20.6796 0.682874 20.4973 0.863149C20.315 1.04342 20.2121 1.28892 20.2111 1.54529V3.43374L16.88 0.791368C16.7061 0.651042 16.4891 0.574432 16.2656 0.574432C16.0421 0.574432 15.8252 0.651042 15.6512 0.791368C9.51114 5.81144 3.77339 10.6614 0.790172 13.4414C0.663251 13.561 0.710527 13.8328 0.895352 14.0393C1.08018 14.2459 1.28674 14.3041 1.41366 14.2133C4.63248 11.9515 10.2941 7.58019 16.2637 2.8319L20.5589 6.297C20.7548 6.45351 21.0023 6.53012 21.2524 6.51141C21.5022 6.49295 21.7358 6.38044 21.9065 6.19688C22.0769 6.01332 22.1717 5.77186 22.1719 5.52127V2.53449H23.919C23.9481 4.70941 23.9842 6.68096 24.0313 8.47536V8.51884C24.0381 8.75095 24.1486 8.96763 24.3321 9.10972C27.2319 11.3787 29.5117 13.097 31.1536 14.235C31.2914 14.3328 31.5415 14.235 31.7045 14.0102C31.8676 13.7854 31.8749 13.5862 31.7662 13.481C30.3501 12.1471 28.3156 10.3482 25.6623 8.08398L25.6625 8.08411Z" fill="#1B1A1A"/>
<path d="M38.2549 25.5744V16.3264H39.9669V25.5744H38.2549ZM38.2549 14.9504V13.1584H39.9669V14.9504H38.2549ZM42.3748 25.5744V16.3264H44.0868V17.2384C44.3961 16.9504 44.7375 16.7051 45.1108 16.5024C45.4841 16.2998 45.8948 16.1984 46.3428 16.1984C46.7161 16.1984 46.9988 16.2944 47.1908 16.4864C47.3935 16.6784 47.5321 16.9184 47.6068 17.2064C47.6921 17.4944 47.7348 17.7878 47.7348 18.0864V25.5744H46.0228V18.5824C46.0228 18.2518 45.9748 17.9958 45.8788 17.8144C45.7828 17.6331 45.5855 17.5424 45.2868 17.5424C45.0948 17.5424 44.8921 17.6011 44.6788 17.7184C44.4761 17.8251 44.2788 17.9584 44.0868 18.1184V25.5744H42.3748ZM52.4301 25.7024C51.9501 25.7024 51.5607 25.6118 51.2621 25.4304C50.9741 25.2491 50.7607 24.9931 50.6221 24.6624C50.4941 24.3318 50.4301 23.9424 50.4301 23.4944V17.4624H49.4541V16.3264H50.4301V13.6224H52.1421V16.3264H53.6301V17.4624H52.1421V23.3824C52.1421 23.7451 52.2007 24.0064 52.3181 24.1664C52.4354 24.3158 52.6594 24.3904 52.9901 24.3904C53.0754 24.3904 53.1714 24.3851 53.2781 24.3744C53.3954 24.3638 53.5074 24.3531 53.6141 24.3424V25.6064C53.4007 25.6384 53.2034 25.6598 53.0221 25.6704C52.8407 25.6918 52.6434 25.7024 52.4301 25.7024ZM58.0079 25.7024C57.2826 25.7024 56.7226 25.5638 56.3279 25.2864C55.9333 24.9984 55.6559 24.5824 55.4959 24.0384C55.3466 23.4838 55.2719 22.8064 55.2719 22.0064V19.8944C55.2719 19.0731 55.3519 18.3904 55.5119 17.8464C55.6719 17.3024 55.9493 16.8918 56.3439 16.6144C56.7493 16.3371 57.3039 16.1984 58.0079 16.1984C58.7866 16.1984 59.3573 16.3584 59.7199 16.6784C60.0933 16.9984 60.3386 17.4624 60.4559 18.0704C60.5733 18.6678 60.6319 19.3878 60.6319 20.2304V20.9824H56.9839V22.8384C56.9839 23.2118 57.0159 23.5158 57.0799 23.7504C57.1546 23.9851 57.2666 24.1611 57.4159 24.2784C57.5759 24.3851 57.7786 24.4384 58.0239 24.4384C58.2799 24.4384 58.4719 24.3798 58.5999 24.2624C58.7386 24.1344 58.8293 23.9584 58.8719 23.7344C58.9253 23.4998 58.9519 23.2278 58.9519 22.9184V22.3584H60.6159V22.7104C60.6159 23.6384 60.4186 24.3691 60.0239 24.9024C59.6293 25.4358 58.9573 25.7024 58.0079 25.7024ZM56.9839 20.0544H58.9519V19.2224C58.9519 18.8384 58.9306 18.5184 58.8879 18.2624C58.8453 17.9958 58.7546 17.7984 58.6159 17.6704C58.4879 17.5318 58.2799 17.4624 57.9919 17.4624C57.7146 17.4624 57.5013 17.5264 57.3519 17.6544C57.2133 17.7824 57.1173 18.0011 57.0639 18.3104C57.0106 18.6091 56.9839 19.0251 56.9839 19.5584V20.0544ZM62.7903 25.5744V16.3264H64.5023V17.6384C64.8436 17.0731 65.185 16.6944 65.5263 16.5024C65.8676 16.3104 66.209 16.2144 66.5503 16.2144C66.593 16.2144 66.6303 16.2144 66.6623 16.2144C66.705 16.2144 66.7583 16.2198 66.8223 16.2304V18.1184C66.6943 18.0651 66.545 18.0224 66.3743 17.9904C66.2143 17.9478 66.049 17.9264 65.8783 17.9264C65.6116 17.9264 65.3663 17.9904 65.1423 18.1184C64.929 18.2358 64.7156 18.4704 64.5023 18.8224V25.5744H62.7903ZM68.5549 25.5744V16.3264H70.2669V25.5744H68.5549ZM68.5549 14.9504V13.1584H70.2669V14.9504H68.5549ZM75.2188 25.7024C74.5361 25.7024 73.9975 25.5638 73.6028 25.2864C73.2081 25.0091 72.9255 24.6144 72.7548 24.1024C72.5948 23.5904 72.5148 22.9878 72.5148 22.2944V19.6064C72.5148 18.9131 72.5948 18.3104 72.7548 17.7984C72.9255 17.2864 73.2081 16.8918 73.6028 16.6144C73.9975 16.3371 74.5361 16.1984 75.2188 16.1984C75.9015 16.1984 76.4348 16.3371 76.8188 16.6144C77.2135 16.8918 77.4908 17.2864 77.6508 17.7984C77.8215 18.3104 77.9068 18.9131 77.9068 19.6064V22.2944C77.9068 22.9878 77.8215 23.5904 77.6508 24.1024C77.4908 24.6144 77.2135 25.0091 76.8188 25.2864C76.4348 25.5638 75.9015 25.7024 75.2188 25.7024ZM75.2188 24.4384C75.5495 24.4384 75.7788 24.3424 75.9068 24.1504C76.0455 23.9584 76.1255 23.7078 76.1468 23.3984C76.1788 23.0784 76.1948 22.7478 76.1948 22.4064V19.5104C76.1948 19.1584 76.1788 18.8278 76.1468 18.5184C76.1255 18.2091 76.0455 17.9584 75.9068 17.7664C75.7788 17.5638 75.5495 17.4624 75.2188 17.4624C74.8881 17.4624 74.6535 17.5638 74.5148 17.7664C74.3761 17.9584 74.2908 18.2091 74.2588 18.5184C74.2375 18.8278 74.2268 19.1584 74.2268 19.5104V22.4064C74.2268 22.7478 74.2375 23.0784 74.2588 23.3984C74.2908 23.7078 74.3761 23.9584 74.5148 24.1504C74.6535 24.3424 74.8881 24.4384 75.2188 24.4384ZM80.0797 25.5744V16.3264H81.7917V17.6384C82.133 17.0731 82.4743 16.6944 82.8157 16.5024C83.157 16.3104 83.4983 16.2144 83.8397 16.2144C83.8823 16.2144 83.9197 16.2144 83.9517 16.2144C83.9943 16.2144 84.0477 16.2198 84.1117 16.2304V18.1184C83.9837 18.0651 83.8343 18.0224 83.6637 17.9904C83.5037 17.9478 83.3383 17.9264 83.1677 17.9264C82.901 17.9264 82.6557 17.9904 82.4317 18.1184C82.2183 18.2358 82.005 18.4704 81.7917 18.8224V25.5744H80.0797Z" fill="#555555"/>
</svg>
